<svg xmlns="http://www.w3.org/2000/svg" width="1600" height="900" viewBox="0 0 1600 900"><defs><linearGradient id="a" x1="0" y1="0" x2="1" y2="1"><stop stop-color="#061018"/><stop offset=".55" stop-color="#0c1822"/><stop offset="1" stop-color="#020507"/></linearGradient><filter id="g" x="-50%" y="-50%" width="200%" height="200%"><feGaussianBlur stdDeviation="12" result="b"/><feMerge><feMergeNode in="b"/><feMergeNode in="SourceGraphic"/></feMerge></filter><pattern id="p" width="44" height="44" patternUnits="userSpaceOnUse"><path d="M44 0H0v44" fill="none" stroke="#28f58a" stroke-opacity=".08"/></pattern></defs><rect width="1600" height="900" fill="url(#a)"/><rect width="1600" height="900" fill="url(#p)"/><circle cx="1260" cy="135" r="230" fill="#23ff88" opacity=".08" filter="url(#g)"/><circle cx="260" cy="780" r="190" fill="#23ff88" opacity=".06" filter="url(#g)"/><g opacity=".55"><rect x="70" y="170" width="120" height="520" rx="8" fill="#101922"/><rect x="210" y="230" width="100" height="460" rx="8" fill="#0e1820"/><rect x="330" y="120" width="135" height="570" rx="8" fill="#111d27"/><rect x="1330" y="160" width="95" height="520" rx="8" fill="#0f1a22"/><rect x="1440" y="250" width="90" height="430" rx="8" fill="#0d161d"/></g><g opacity=".85"><rect x="110" y="238" width="150" height="12" rx="6" fill="#1fe37d"/><rect x="110" y="266" width="110" height="10" rx="5" fill="#fff" opacity=".45"/><rect x="110" y="288" width="180" height="10" rx="5" fill="#fff" opacity=".18"/><rect x="110" y="320" width="210" height="90" rx="12" fill="#111e26" stroke="#1fe37d" stroke-opacity=".35"/><rect x="110" y="440" width="190" height="10" rx="5" fill="#fff" opacity=".14"/><rect x="110" y="462" width="170" height="10" rx="5" fill="#fff" opacity=".14"/><rect x="110" y="484" width="140" height="10" rx="5" fill="#fff" opacity=".14"/></g><g opacity=".82"><rect x="1225" y="220" width="240" height="280" rx="20" fill="#0c161c" stroke="#1fe37d" stroke-opacity=".35"/><text x="1260" y="280" font-family="Arial,Helvetica,sans-serif" font-size="28" fill="#36f08c">ARTIFACTORY</text><text x="1260" y="332" font-family="Arial,Helvetica,sans-serif" font-size="28" fill="#36f08c">DISTRIBUTION</text><text x="1260" y="384" font-family="Arial,Helvetica,sans-serif" font-size="28" fill="#36f08c">PIPELINES</text><text x="1260" y="436" font-family="Arial,Helvetica,sans-serif" font-size="28" fill="#36f08c">SECURITY</text></g><rect x="395" y="205" width="810" height="470" rx="30" fill="#fff" opacity=".06" stroke="#28f58a" stroke-width="4" filter="url(#g)"/><rect x="430" y="240" width="740" height="400" rx="22" fill="#0a1218" opacity=".72" stroke="#fff" stroke-opacity=".10"/><g filter="url(#g)" fill="#24f18a"><circle cx="540" cy="394" r="24"/><circle cx="585" cy="360" r="17"/><circle cx="635" cy="392" r="21"/><circle cx="518" cy="448" r="13"/><circle cx="658" cy="448" r="13"/></g><path d="M535 430C555 475 618 475 638 430" fill="none" stroke="#24f18a" stroke-width="18" stroke-linecap="round" filter="url(#g)"/><text x="710" y="430" font-family="Arial,Helvetica,sans-serif" font-size="118" font-weight="700" fill="#24f18a" filter="url(#g)">JFrog</text><text x="710" y="485" font-family="Arial,Helvetica,sans-serif" font-size="28" letter-spacing="4" fill="#fff" opacity=".75">SOFTWARE SUPPLY CHAIN PLATFORM</text><line x1="470" y1="560" x2="1130" y2="560" stroke="#1fe37d" stroke-opacity=".22" stroke-width="2"/><text x="472" y="602" font-family="Arial,Helvetica,sans-serif" font-size="22" fill="#fff" opacity=".52">DevOps infrastructure • artifact management • security • CI/CD</text><rect x="430" y="692" width="740" height="18" rx="9" fill="#16ff8a" opacity=".35" filter="url(#g)"/></svg>